<?xml version="1.0" encoding="UTF-8"?>
<svg id="LOGO" xmlns="http://www.w3.org/2000/svg" xmlns:xlink="http://www.w3.org/1999/xlink" viewBox="0 0 500 120.11">
  <defs>
    <style>
      .cls-1 {
        fill: #021ab9;
      }

      .cls-1, .cls-2, .cls-3 {
        stroke-width: 0px;
      }

      .cls-2 {
        fill: url(#Degradado_sin_nombre_23);
      }

      .cls-3 {
        fill: #0856ff;
      }
    </style>
    <linearGradient id="Degradado_sin_nombre_23" data-name="Degradado sin nombre 23" x1="1.34" y1="123.73" x2="115.91" y2="43.11" gradientUnits="userSpaceOnUse">
      <stop offset="0" stop-color="#0a22c3"/>
      <stop offset="1" stop-color="#0153ff"/>
    </linearGradient>
  </defs>
  <g>
    <g>
      <path class="cls-3" d="M147.16,88.83c.63-1.14,1.49-2.03,2.59-2.67,1.09-.64,2.31-.96,3.66-.96,1.64,0,3.05.39,4.22,1.17s2.02,1.88,2.56,3.29h-1.73c-.42-1-1.06-1.77-1.92-2.34-.86-.56-1.9-.84-3.12-.84-1.08,0-2.05.25-2.91.76-.86.51-1.54,1.23-2.03,2.18-.49.95-.74,2.04-.74,3.29s.25,2.34.74,3.28c.49.94,1.17,1.66,2.03,2.17.86.51,1.83.76,2.91.76,1.22,0,2.26-.28,3.12-.83.86-.55,1.5-1.32,1.92-2.3h1.73c-.53,1.4-1.39,2.49-2.57,3.26s-2.58,1.16-4.21,1.16c-1.35,0-2.57-.32-3.66-.96-1.09-.64-1.96-1.52-2.59-2.66-.63-1.14-.95-2.43-.95-3.87s.32-2.74.95-3.88Z"/>
      <path class="cls-3" d="M166.53,99.27c-1.11-.64-1.98-1.53-2.62-2.67s-.96-2.44-.96-3.88.32-2.74.96-3.88,1.51-2.03,2.62-2.67c1.11-.64,2.34-.96,3.7-.96s2.62.32,3.72.96c1.11.64,1.98,1.53,2.61,2.67.63,1.14.95,2.44.95,3.88s-.32,2.74-.95,3.88c-.63,1.14-1.5,2.03-2.61,2.67-1.11.64-2.35.96-3.72.96s-2.59-.32-3.7-.96ZM173.18,98.18c.87-.5,1.56-1.23,2.06-2.18.51-.95.76-2.04.76-3.29s-.25-2.34-.76-3.28c-.5-.94-1.19-1.66-2.06-2.17-.87-.5-1.85-.76-2.94-.76s-2.08.25-2.95.76-1.56,1.23-2.06,2.17c-.5.94-.76,2.03-.76,3.28s.25,2.35.76,3.29c.5.95,1.19,1.67,2.06,2.18s1.85.76,2.95.76,2.08-.25,2.94-.76Z"/>
      <path class="cls-3" d="M191.82,100.08h-1.47l-8.14-12.37v12.37h-1.47v-14.7h1.47l8.14,12.35v-12.35h1.47v14.7Z"/>
      <path class="cls-3" d="M204.23,86.26c1.16.59,2.05,1.44,2.67,2.54.62,1.11.92,2.43.92,3.95s-.31,2.82-.92,3.92c-.62,1.1-1.51,1.94-2.67,2.52s-2.56.87-4.19.87h-4.35v-14.7h4.35c1.63,0,3.02.29,4.19.88ZM204.72,97.25c1.07-1.07,1.61-2.57,1.61-4.49s-.54-3.45-1.61-4.53c-1.07-1.09-2.63-1.63-4.68-1.63h-2.88v12.26h2.88c2.05,0,3.61-.54,4.68-1.61Z"/>
      <path class="cls-3" d="M213.97,99.27c-1.11-.64-1.98-1.53-2.62-2.67-.64-1.14-.96-2.44-.96-3.88s.32-2.74.96-3.88,1.51-2.03,2.62-2.67c1.11-.64,2.34-.96,3.7-.96s2.62.32,3.72.96c1.11.64,1.98,1.53,2.61,2.67.63,1.14.95,2.44.95,3.88s-.32,2.74-.95,3.88c-.63,1.14-1.5,2.03-2.61,2.67-1.11.64-2.35.96-3.72.96s-2.59-.32-3.7-.96ZM220.61,98.18c.87-.5,1.56-1.23,2.06-2.18.51-.95.76-2.04.76-3.29s-.25-2.34-.76-3.28c-.5-.94-1.19-1.66-2.06-2.17-.87-.5-1.85-.76-2.94-.76s-2.08.25-2.95.76-1.56,1.23-2.06,2.17c-.5.94-.76,2.03-.76,3.28s.25,2.35.76,3.29c.5.95,1.19,1.67,2.06,2.18s1.85.76,2.95.76,2.08-.25,2.94-.76Z"/>
      <path class="cls-3" d="M242.53,85.56v14.51h-1.47v-11.59l-5.17,11.59h-1.07l-5.18-11.55v11.55h-1.47v-14.51h1.56l5.62,12.58,5.62-12.58h1.58Z"/>
      <path class="cls-3" d="M247.87,85.37v14.7h-1.47v-14.7h1.47Z"/>
      <path class="cls-3" d="M262.83,100.08h-1.47l-8.14-12.37v12.37h-1.47v-14.7h1.47l8.14,12.35v-12.35h1.47v14.7Z"/>
      <path class="cls-3" d="M268.17,85.37v14.7h-1.47v-14.7h1.47Z"/>
      <path class="cls-3" d="M273.45,85.37v9.26c0,1.46.35,2.54,1.04,3.24.69.7,1.64,1.05,2.85,1.05s2.15-.35,2.83-1.04c.68-.69,1.02-1.78,1.02-3.25v-9.26h1.47v9.23c0,1.87-.49,3.27-1.48,4.21-.99.94-2.28,1.41-3.86,1.41s-2.87-.47-3.86-1.41c-.99-.94-1.48-2.34-1.48-4.21v-9.23h1.47Z"/>
      <path class="cls-3" d="M300.84,85.56v14.51h-1.47v-11.59l-5.17,11.59h-1.07l-5.17-11.55v11.55h-1.47v-14.51h1.56l5.62,12.58,5.62-12.58h1.58Z"/>
      <path class="cls-3" d="M312.9,99.72c-.74-.34-1.31-.81-1.74-1.41-.42-.6-.64-1.28-.67-2.02h1.56c.07.72.39,1.34.95,1.88s1.38.81,2.46.81c1,0,1.78-.26,2.37-.77.58-.51.87-1.16.87-1.95,0-.63-.16-1.14-.48-1.52-.32-.39-.72-.67-1.2-.86s-1.14-.4-1.98-.62c-.98-.27-1.76-.53-2.33-.78-.58-.25-1.07-.64-1.47-1.18s-.61-1.26-.61-2.17c0-.76.2-1.43.59-2.03s.95-1.06,1.66-1.4,1.54-.5,2.46-.5c1.36,0,2.46.33,3.29,1s1.32,1.52,1.44,2.58h-1.6c-.1-.6-.43-1.14-.99-1.61-.56-.47-1.32-.7-2.27-.7-.88,0-1.62.23-2.21.7s-.88,1.11-.88,1.92c0,.62.16,1.11.48,1.49.32.38.73.67,1.21.86.48.2,1.14.41,1.97.63.95.27,1.73.53,2.31.79.59.26,1.09.66,1.49,1.19s.61,1.25.61,2.15c0,.69-.18,1.34-.55,1.96-.37.62-.9,1.11-1.62,1.49-.72.38-1.57.57-2.57.57s-1.82-.17-2.56-.5Z"/>
      <path class="cls-3" d="M326.46,99.27c-1.11-.64-1.98-1.53-2.62-2.67s-.96-2.44-.96-3.88.32-2.74.96-3.88c.64-1.14,1.51-2.03,2.62-2.67,1.11-.64,2.34-.96,3.7-.96s2.62.32,3.72.96c1.11.64,1.98,1.53,2.61,2.67.63,1.14.95,2.44.95,3.88s-.32,2.74-.95,3.88c-.63,1.14-1.5,2.03-2.61,2.67-1.11.64-2.35.96-3.72.96s-2.59-.32-3.7-.96ZM333.1,98.18c.87-.5,1.56-1.23,2.06-2.18.51-.95.76-2.04.76-3.29s-.25-2.34-.76-3.28c-.5-.94-1.19-1.66-2.06-2.17-.87-.5-1.85-.76-2.94-.76s-2.08.25-2.95.76-1.56,1.23-2.06,2.17c-.5.94-.76,2.03-.76,3.28s.25,2.35.76,3.29c.5.95,1.19,1.67,2.06,2.18s1.85.76,2.95.76,2.08-.25,2.94-.76Z"/>
      <path class="cls-3" d="M342.13,98.88h5.28v1.2h-6.75v-14.7h1.47v13.5Z"/>
      <path class="cls-3" d="M351.45,85.37v9.26c0,1.46.35,2.54,1.04,3.24.69.7,1.64,1.05,2.85,1.05s2.15-.35,2.83-1.04c.68-.69,1.02-1.78,1.02-3.25v-9.26h1.47v9.23c0,1.87-.49,3.27-1.48,4.21-.99.94-2.28,1.41-3.86,1.41s-2.87-.47-3.86-1.41c-.99-.94-1.48-2.34-1.48-4.21v-9.23h1.47Z"/>
      <path class="cls-3" d="M373.07,85.37v1.22h-4.08v13.48h-1.47v-13.48h-4.1v-1.22h9.65Z"/>
      <path class="cls-3" d="M377.4,85.37v14.7h-1.47v-14.7h1.47Z"/>
      <path class="cls-3" d="M384.18,99.27c-1.11-.64-1.98-1.53-2.62-2.67s-.96-2.44-.96-3.88.32-2.74.96-3.88,1.51-2.03,2.62-2.67c1.11-.64,2.34-.96,3.7-.96s2.62.32,3.72.96c1.11.64,1.98,1.53,2.61,2.67.63,1.14.95,2.44.95,3.88s-.32,2.74-.95,3.88c-.63,1.14-1.5,2.03-2.61,2.67-1.11.64-2.35.96-3.72.96s-2.59-.32-3.7-.96ZM390.82,98.18c.87-.5,1.56-1.23,2.06-2.18.51-.95.76-2.04.76-3.29s-.25-2.34-.76-3.28c-.5-.94-1.19-1.66-2.06-2.17-.87-.5-1.85-.76-2.94-.76s-2.08.25-2.95.76-1.56,1.23-2.06,2.17c-.5.94-.76,2.03-.76,3.28s.25,2.35.76,3.29c.5.95,1.19,1.67,2.06,2.18s1.85.76,2.95.76,2.08-.25,2.94-.76Z"/>
      <path class="cls-3" d="M409.46,100.08h-1.47l-8.14-12.37v12.37h-1.47v-14.7h1.47l8.14,12.35v-12.35h1.47v14.7Z"/>
      <path class="cls-3" d="M415.23,99.72c-.74-.34-1.31-.81-1.74-1.41-.42-.6-.64-1.28-.67-2.02h1.56c.07.72.39,1.34.95,1.88s1.38.81,2.46.81c1,0,1.78-.26,2.37-.77.58-.51.87-1.16.87-1.95,0-.63-.16-1.14-.48-1.52-.32-.39-.72-.67-1.2-.86s-1.14-.4-1.98-.62c-.98-.27-1.76-.53-2.33-.78-.58-.25-1.07-.64-1.47-1.18s-.61-1.26-.61-2.17c0-.76.2-1.43.59-2.03s.95-1.06,1.66-1.4,1.54-.5,2.46-.5c1.36,0,2.46.33,3.29,1s1.32,1.52,1.44,2.58h-1.6c-.1-.6-.43-1.14-.99-1.61-.56-.47-1.32-.7-2.27-.7-.88,0-1.62.23-2.21.7s-.88,1.11-.88,1.92c0,.62.16,1.11.48,1.49.32.38.73.67,1.21.86.48.2,1.14.41,1.97.63.95.27,1.73.53,2.31.79.59.26,1.09.66,1.49,1.19s.61,1.25.61,2.15c0,.69-.18,1.34-.55,1.96-.37.62-.9,1.11-1.62,1.49-.72.38-1.57.57-2.57.57s-1.82-.17-2.56-.5Z"/>
    </g>
    <g>
      <path class="cls-3" d="M163.35,43.36c1.6,0,3.02.38,4.27,1.12,1.25.75,2.22,1.84,2.91,3.27h9.18c-.98-3.71-2.91-6.64-5.81-8.79-2.9-2.15-6.38-3.22-10.45-3.22-3.32,0-6.29.74-8.91,2.22-2.62,1.48-4.66,3.55-6.13,6.2-1.47,2.65-2.2,5.67-2.2,9.06s.73,6.4,2.2,9.04c1.47,2.64,3.51,4.7,6.13,6.18,2.62,1.48,5.59,2.22,8.91,2.22,4.07,0,7.55-1.07,10.45-3.2,2.9-2.13,4.83-5.05,5.81-8.77h-9.18c-.68,1.43-1.65,2.52-2.91,3.27-1.25.75-2.68,1.12-4.27,1.12-2.57,0-4.66-.89-6.25-2.69-1.6-1.79-2.39-4.18-2.39-7.18s.8-5.39,2.39-7.18c1.59-1.79,3.68-2.69,6.25-2.69Z"/>
      <path class="cls-3" d="M211.14,37.89c-2.69-1.5-5.64-2.25-8.86-2.25s-6.18.75-8.86,2.25-4.82,3.58-6.4,6.25c-1.58,2.67-2.37,5.68-2.37,9.04s.79,6.37,2.37,9.06c1.58,2.69,3.71,4.78,6.4,6.28,2.69,1.5,5.64,2.25,8.86,2.25s6.17-.75,8.84-2.25c2.67-1.5,4.79-3.59,6.35-6.28,1.56-2.69,2.34-5.71,2.34-9.06s-.77-6.36-2.32-9.04c-1.55-2.67-3.66-4.75-6.35-6.25ZM208.85,60.41c-1.64,1.82-3.83,2.74-6.57,2.74s-4.97-.9-6.62-2.71c-1.64-1.81-2.47-4.22-2.47-7.25s.82-5.49,2.47-7.28c1.64-1.79,3.85-2.69,6.62-2.69s4.92.9,6.57,2.71c1.64,1.81,2.47,4.22,2.47,7.25s-.82,5.4-2.47,7.23Z"/>
      <polygon class="cls-3" points="247.99 57.38 234.02 36.14 225.67 36.14 225.67 70.42 234.02 70.42 234.02 49.27 247.99 70.42 256.34 70.42 256.34 36.14 247.99 36.14 247.99 57.38"/>
      <path class="cls-3" d="M285.94,38.29c-2.7-1.43-5.86-2.15-9.47-2.15h-12.84v34.28h12.84c3.58,0,6.73-.72,9.45-2.15,2.72-1.43,4.82-3.45,6.3-6.06,1.48-2.6,2.22-5.58,2.22-8.94s-.74-6.37-2.22-8.96c-1.48-2.59-3.57-4.6-6.28-6.03ZM283.3,60.6c-1.76,1.73-4.22,2.59-7.37,2.59h-3.96v-19.93h3.96c3.16,0,5.62.88,7.37,2.64,1.76,1.76,2.64,4.22,2.64,7.37s-.88,5.6-2.64,7.33Z"/>
      <path class="cls-3" d="M331.78,44.15c-1.55-2.67-3.66-4.75-6.35-6.25s-5.64-2.25-8.86-2.25-6.18.75-8.86,2.25c-2.69,1.5-4.82,3.58-6.4,6.25-1.58,2.67-2.37,5.68-2.37,9.04s.79,6.37,2.37,9.06c1.58,2.69,3.71,4.78,6.4,6.28,2.69,1.5,5.64,2.25,8.86,2.25s6.17-.75,8.84-2.25c2.67-1.5,4.79-3.59,6.35-6.28,1.56-2.69,2.34-5.71,2.34-9.06s-.77-6.36-2.32-9.04ZM323.13,60.41c-1.64,1.82-3.83,2.74-6.57,2.74s-4.97-.9-6.62-2.71c-1.64-1.81-2.47-4.22-2.47-7.25s.82-5.49,2.47-7.28c1.64-1.79,3.85-2.69,6.62-2.69s4.92.9,6.57,2.71c1.64,1.81,2.47,4.22,2.47,7.25s-.82,5.4-2.47,7.23Z"/>
    </g>
    <g>
      <polygon class="cls-1" points="339.96 70.42 348.31 70.42 348.31 56.55 358.76 56.55 358.76 50.06 348.31 50.06 348.31 42.83 362.28 42.83 362.28 36.14 339.96 36.14 339.96 70.42"/>
      <path class="cls-1" d="M392.97,37.89c-2.69-1.5-5.64-2.25-8.86-2.25s-6.18.75-8.86,2.25-4.82,3.58-6.4,6.25c-1.58,2.67-2.37,5.68-2.37,9.04s.79,6.37,2.37,9.06c1.58,2.69,3.71,4.78,6.4,6.28,2.69,1.5,5.64,2.25,8.86,2.25s6.17-.75,8.84-2.25c2.67-1.5,4.79-3.59,6.35-6.28,1.56-2.69,2.34-5.71,2.34-9.06s-.77-6.36-2.32-9.04c-1.55-2.67-3.66-4.75-6.35-6.25ZM390.68,60.41c-1.64,1.82-3.83,2.74-6.57,2.74s-4.97-.9-6.62-2.71c-1.64-1.81-2.47-4.22-2.47-7.25s.82-5.49,2.47-7.28c1.64-1.79,3.85-2.69,6.62-2.69s4.92.9,6.57,2.71c1.64,1.81,2.47,4.22,2.47,7.25s-.82,5.4-2.47,7.23Z"/>
      <path class="cls-1" d="M432.19,53.03c1.29-1.79,1.93-3.83,1.93-6.11,0-2.02-.47-3.85-1.42-5.49-.94-1.64-2.37-2.94-4.27-3.88-1.91-.94-4.21-1.42-6.91-1.42h-14.02v34.28h8.35v-12.94h2l7.13,12.94h9.43l-7.91-13.58c2.51-.75,4.4-2.02,5.69-3.81ZM424.47,50.45c-.77.75-1.91,1.12-3.44,1.12h-5.18v-8.5h5.18c1.53,0,2.68.37,3.44,1.12.76.75,1.15,1.77,1.15,3.08,0,1.37-.38,2.43-1.15,3.17Z"/>
      <path class="cls-1" d="M456.29,43.36c1.59,0,3.02.38,4.27,1.12,1.25.75,2.22,1.84,2.91,3.27h9.18c-.98-3.71-2.91-6.64-5.81-8.79s-6.38-3.22-10.45-3.22c-3.32,0-6.29.74-8.91,2.22-2.62,1.48-4.66,3.55-6.13,6.2-1.47,2.65-2.2,5.67-2.2,9.06s.73,6.4,2.2,9.04c1.47,2.64,3.51,4.7,6.13,6.18,2.62,1.48,5.59,2.22,8.91,2.22,4.07,0,7.55-1.07,10.45-3.2,2.9-2.13,4.84-5.05,5.81-8.77h-9.18c-.68,1.43-1.65,2.52-2.91,3.27-1.25.75-2.68,1.12-4.27,1.12-2.57,0-4.66-.89-6.25-2.69-1.6-1.79-2.39-4.18-2.39-7.18s.8-5.39,2.39-7.18c1.59-1.79,3.68-2.69,6.25-2.69Z"/>
      <polygon class="cls-1" points="500 42.83 500 36.14 479 36.14 479 70.42 500 70.42 500 63.73 487.35 63.73 487.35 56.21 498.53 56.21 498.53 49.76 487.35 49.76 487.35 42.83 500 42.83"/>
    </g>
  </g>
  <g id="CUSTOM-Form1">
    <path class="cls-2" d="M54.04,72.58l6.37-4.65v52.17h-6.37v-47.53ZM95.5,57.48v-24.83L54.04,2.4v54.33l-7.07,5.16v-29.23L0,66.94v53.17h6.37v-49.93l34.23-24.98v21.34l-20.3,14.81v38.75h26.67v-42.36l-6.37,4.65v31.35h-13.93v-29.15l33.74-24.62V14.93l28.72,20.96v16.94l-19.73-14.4v81.67h6.37V50.96l44.07,32.16v30.62h-24.34v-40.41l-6.37-4.65v51.43h37.07v-40.22l-30.71-22.41Z"/>
  </g>
</svg>